HIERARCHY
ROOT Hips
{
	OFFSET 0.00000 0.00000 0.00000
	CHANNELS 6 Xposition Yposition Zposition Zrotation Yrotation Xrotation 
	JOINT LHipJoint
	{
		OFFSET 0 0 0
		CHANNELS 3 Zrotation Yrotation Xrotation
		JOINT LeftHip
		{
			OFFSET 1.44361 -1.63093 0.70831
			CHANNELS 3 Zrotation Yrotation Xrotation
			JOINT LeftKnee
			{
				OFFSET 2.20103 -6.04728 0.00000
				CHANNELS 3 Zrotation Yrotation Xrotation
				JOINT LeftAnkle
				{
					OFFSET 2.54154 -6.98283 0.00000
					CHANNELS 3 Zrotation Yrotation Xrotation
					JOINT LeftToe
					{
						OFFSET 0.05971 -0.16406 1.77582
						CHANNELS 3 Zrotation Yrotation Xrotation
						End Site
						{
							OFFSET 0.00000 -0.00000 0.90832
						}
					}
				}
			}
		}
	}
	JOINT RHipJoint
	{
		OFFSET 0 0 0
		CHANNELS 3 Zrotation Yrotation Xrotation
		JOINT RightHip
		{
			OFFSET -1.65838 -1.63093 0.70830
			CHANNELS 3 Zrotation Yrotation Xrotation
			JOINT RightKnee
			{
				OFFSET -2.26926 -6.23475 0.00000
				CHANNELS 3 Zrotation Yrotation Xrotation
				JOINT RightAnkle
				{
					OFFSET -2.34808 -6.45129 0.00000
					CHANNELS 3 Zrotation Yrotation Xrotation
					JOINT RightToe
					{
						OFFSET -0.18633 -0.51195 1.68539
						CHANNELS 3 Zrotation Yrotation Xrotation
						End Site
						{
							OFFSET -0.00000 -0.00000 0.88927
						}
					}
				}
			}
		}
	}
	JOINT lowerback
	{
		OFFSET 0 0 0
		CHANNELS 3 Zrotation Yrotation Xrotation
		JOINT Chest
		{
			OFFSET -0.10393 2.01691 0.06920
			CHANNELS 3 Zrotation Yrotation Xrotation
			JOINT Chest2
			{
				OFFSET 0.04092 2.01302 -0.05283
				CHANNELS 3 Zrotation Yrotation Xrotation
				JOINT lowerneck
				{
					OFFSET 0 0 0
					CHANNELS 3 Zrotation Yrotation Xrotation
					JOINT Neck
					{
						OFFSET -0.02870 1.58978 -0.03113
						CHANNELS 3 Zrotation Yrotation Xrotation
						JOINT Head
						{
							OFFSET 0.11532 1.54326 -0.29195
							CHANNELS 3 Zrotation Yrotation Xrotation
							End Site
							{
								OFFSET 0.04056 1.59999 -0.09535
							}
						}
					}
				}
				JOINT LeftCollar
				{
					OFFSET 0 0 0
					CHANNELS 3 Zrotation Yrotation Xrotation
					JOINT LeftShoulder
					{
						OFFSET 3.30641 1.15764 0.01104
CHANNELS 3 Zrotation Xrotation Yrotation
						JOINT LeftElbow
						{
OFFSET 0 -4.632080 0.000000
CHANNELS 3 Zrotation Xrotation Yrotation
							JOINT LeftWrist
							{
OFFSET 0 -3.419240 -0.000000
CHANNELS 3 Zrotation Xrotation Yrotation
								JOINT lhand
								{
									OFFSET 0 0 0
CHANNELS 3 Zrotation Xrotation Yrotation
									JOINT LFingers
									{
OFFSET 0 -0.625370 -0.000000
CHANNELS 3 Zrotation Xrotation Yrotation
										End Site
										{
OFFSET 0 -0.504190 -0.000000
										}
									}
								}
								JOINT LThumb
								{
OFFSET 0 0.000000 0.000000
CHANNELS 3 Zrotation Xrotation Yrotation
									End Site
									{
OFFSET 0 -0.511890 0.511890
									}
								}
							}
						}
					}
				}
				JOINT RightCollar
				{
					OFFSET 0 0 0
					CHANNELS 3 Zrotation Yrotation Xrotation
					JOINT RightShoulder
					{
						OFFSET -3.78081 1.02180 -0.16609
CHANNELS 3 Zrotation Xrotation Yrotation
						JOINT RightElbow
						{
OFFSET 0 -4.406400 -0.000000
CHANNELS 3 Zrotation Xrotation Yrotation
							JOINT RightWrist
							{
OFFSET 0 -3.446750 0.000000
CHANNELS 3 Zrotation Xrotation Yrotation
								JOINT rhand
								{
									OFFSET 0 0 0
CHANNELS 3 Zrotation Xrotation Yrotation
									JOINT RFingers
									{
OFFSET 0 -0.513670 -0.000000
CHANNELS 3 Zrotation Xrotation Yrotation
										End Site
										{
OFFSET 0 -0.414140 -0.000000
										}
									}
								}
								JOINT RThumb
								{
OFFSET 0 0.000000 0.000000
CHANNELS 3 Zrotation Xrotation Yrotation
									End Site
									{
OFFSET 0 -0.420460 0.420460
									}
								}
							}
						}
					}
				}
			}
		}
	}
}
MOTION
Frames: 6
Frame Time: 0.008333333333333333
7.957517 16.355802 -9.979114 8.037098 -6.915310 -10.379730 0.000000 0.000000 0.000000 10.533407 -10.830388 -99.855108 7.088183 15.397883 49.193419 39.938490 -10.672511 -171.588437 5.769997 -14.201397 -44.050915 0.000000 0.000000 0.000000 18.447982 3.989152 8.481715 -1.006564 -6.383869 17.902342 -0.926375 -0.267906 -18.292872 -0.320033 3.633237 -10.047270 0.263695 3.239004 9.105123 -2.069159 4.362919 8.820352 -2.519284 2.273664 4.299162 -0.913698 4.283842 -2.307643 1.496600 6.170662 40.518088 1.524704 2.788749 14.221532 0.000000 0.000000 0.000000 14.453552 10.109112 -12.976548 15.303154 -24.565319 3.351725 22.990408 9.805832 18.066542 0.000000 0.000000 0.000000 -7.125000 0.000000 0.000000 -3.309820 10.493538 -2.656133 0.000000 0.000000 0.000000 -17.046004 5.044089 24.091327 -33.108426 -43.411837 -13.496989 -13.421701 4.142667 40.383667 0.000000 0.000000 0.000000 7.125000 0.000000 0.000000 31.938739 68.648179 -18.819548
7.851748 16.417062 -10.078027 8.104128 -6.155903 -6.858289 0.000000 0.000000 0.000000 4.865377 -11.306262 -81.045439 11.534100 18.177063 64.492713 39.956252 -11.921007 -171.037045 6.948681 -15.287288 -48.677815 0.000000 0.000000 0.000000 17.979991 3.953173 4.946532 -0.839035 -5.842436 16.328188 -0.780895 -0.485343 -16.881221 -0.501306 4.538693 -12.597336 -0.872908 2.806614 7.017092 -1.680650 3.759536 8.562247 -1.351529 1.888828 5.041129 -1.705841 4.420960 -3.034076 2.138740 6.270617 40.796737 1.972472 2.777354 14.447898 0.000000 0.000000 0.000000 14.347404 9.812309 -16.792877 18.087890 -28.267598 4.591831 22.872361 7.966474 18.640084 0.000000 0.000000 0.000000 -7.125000 0.000000 0.000000 -3.432824 9.901001 -2.796521 0.000000 0.000000 0.000000 -15.895801 5.999449 23.147693 -31.393523 -42.058228 -12.332597 -13.126721 4.935709 39.845897 0.000000 0.000000 0.000000 7.125000 0.000000 0.000000 31.412335 68.119459 -18.120067
7.781087 16.467400 -10.050169 8.316687 -5.369195 -3.447487 0.000000 0.000000 0.000000 -2.172593 -11.507057 -59.814102 19.754932 19.998588 89.283458 28.610211 25.880879 -108.517554 6.997784 -15.329997 -48.865766 0.000000 0.000000 0.000000 17.313322 3.679408 2.031184 -0.684511 -5.289779 14.737033 -0.655005 -0.761430 -15.584394 -1.173893 6.877033 -19.351505 -1.258564 2.298690 4.803337 -1.655366 3.115490 7.866480 -1.014030 1.538350 5.502911 -1.930091 4.361462 -3.090243 2.402979 6.096049 40.768670 2.099053 2.696697 14.426577 0.000000 0.000000 0.000000 14.008036 10.697985 -19.117331 20.590167 -31.346721 5.835337 23.934767 5.353736 19.383679 0.000000 0.000000 0.000000 -7.125000 0.000000 0.000000 -2.808403 8.946406 -2.340437 0.000000 0.000000 0.000000 -13.403822 8.453908 21.570203 -29.203986 -40.201265 -10.892090 -14.063928 6.637166 38.879317 0.000000 0.000000 0.000000 7.125000 0.000000 0.000000 28.939008 67.604992 -16.266050
7.772513 16.463592 -9.927524 7.768691 -5.132464 -0.001339 0.000000 0.000000 0.000000 -7.257629 -10.800070 -40.971284 12.405534 18.537584 67.247513 -0.237499 15.815846 8.406277 6.925857 -15.269081 -48.593329 0.000000 0.000000 0.000000 17.335115 3.825846 -0.978834 -0.624858 -5.058182 14.074611 -0.611690 -0.191239 -14.850250 -1.279372 7.166895 -20.211282 -1.268538 1.716439 2.669632 -0.986155 2.341731 6.861665 -0.261861 1.127435 5.601245 -1.865264 4.350872 -3.554552 1.958244 6.224816 41.272358 1.956302 2.684243 14.807930 0.000000 0.000000 0.000000 11.514803 11.493469 -17.761481 20.624566 -31.387150 5.853318 24.582830 4.220408 20.035404 0.000000 0.000000 0.000000 -7.125000 0.000000 0.000000 -2.454928 8.143955 -2.083637 0.000000 0.000000 0.000000 -11.623276 12.044385 20.085761 -28.810116 -39.851366 -10.638876 -13.122617 7.451593 39.016577 0.000000 0.000000 0.000000 7.125000 0.000000 0.000000 30.175752 67.435209 -16.896304
7.792914 16.406470 -9.840938 6.590656 -4.154011 3.478062 0.000000 0.000000 0.000000 -10.018038 -10.174114 -27.673919 6.437858 14.833398 46.703209 0.000107 11.558135 7.712824 7.236307 -15.505862 -49.724867 0.000000 0.000000 0.000000 18.196607 4.496661 -4.600374 -0.667691 -5.225304 14.552416 -0.638435 -0.611952 -15.329113 -1.254115 7.097767 -20.006097 -1.087504 0.984096 1.555183 -0.120922 1.332072 5.854284 0.521977 0.613598 5.153197 -1.226630 4.038911 -4.024751 1.714918 5.679632 41.074077 1.682770 2.504199 14.864640 0.000000 0.000000 0.000000 9.539489 11.888820 -16.817135 18.756641 -29.114006 4.912408 22.903774 6.347487 19.486453 0.000000 0.000000 0.000000 -7.125000 0.000000 0.000000 -3.483485 8.997569 -2.901147 0.000000 0.000000 0.000000 -9.953609 14.141045 19.579293 -29.751860 -40.679661 -11.247559 -12.734952 6.792706 38.829397 0.000000 0.000000 0.000000 7.125000 0.000000 0.000000 30.332075 67.162537 -16.806854
7.811942 16.368663 -9.870798 7.315512 -2.384200 5.777124 0.000000 0.000000 0.000000 -13.291581 -8.289945 -21.494752 3.556681 11.542625 34.136630 -0.165762 7.362980 -1.072921 9.121704 -16.884508 -56.508754 0.000000 0.000000 0.000000 17.028048 4.804480 -8.161710 -0.841087 -5.848273 16.345338 -0.714872 -1.196460 -16.452489 -0.730697 5.450880 -15.201692 -2.464359 -0.132643 1.444562 0.124975 -0.137093 6.430778 1.504095 -0.202235 5.862961 -2.233457 3.866164 -4.152682 2.154734 5.345722 39.365683 1.939755 2.285375 13.999070 0.000000 0.000000 0.000000 8.410581 11.146897 -16.495554 17.466098 -27.468154 4.300117 23.287762 9.402637 20.295180 0.000000 0.000000 0.000000 -7.125000 0.000000 0.000000 -3.308853 8.079698 -2.815808 0.000000 0.000000 0.000000 -9.190561 10.820852 22.453799 -30.504678 -41.322054 -11.741464 -12.703861 6.804325 39.645443 0.000000 0.000000 0.000000 7.125000 0.000000 0.000000 31.580413 67.821970 -18.026517
